<?xml version="1.0" encoding="UTF-8"?>
<svg width="24px" height="19px" viewBox="0 0 24 19" version="1.1" xmlns="http://www.w3.org/2000/svg" xmlns:xlink="http://www.w3.org/1999/xlink">
    <title></title>
    <g id="Parcoursup" stroke="none" stroke-width="1" fill="none" fill-rule="evenodd">
        <g id="[Parcoursup]-Espace-Candidat---Accueil-(phase-2)" transform="translate(-18.000000, -264.000000)" fill="#000" fill-rule="nonzero">
            <g id="Group-3-Copy-4" transform="translate(0.000000, 244.000000)">
                <path d="M33.984,38.6 L33.984,36.584 L39,36.584 C39.544,36.584 40.008,36.392 40.392,36.008 C40.776,35.624 40.968,35.16 40.968,34.616 L40.968,34.616 L41.016,22.616 C41.016,22.072 40.816,21.6 40.416,21.2 C40.016,20.8 39.544,20.6 39,20.6 L39,20.6 L21,20.6 C20.456,20.6 19.984,20.8 19.584,21.2 C19.184,21.6 18.984,22.072 18.984,22.616 L18.984,22.616 L18.984,34.616 C18.984,35.16 19.184,35.624 19.584,36.008 C19.984,36.392 20.456,36.584 21,36.584 L21,36.584 L26.016,36.584 L26.016,38.6 L33.984,38.6 Z M39,34.616 L21,34.616 L21,22.616 L39,22.616 L39,34.616 Z M24.984,27.584 L24.984,25.616 L23.016,25.616 L23.016,27.584 L24.984,27.584 Z M36.984,27.584 L36.984,25.616 L26.016,25.616 L26.016,27.584 L36.984,27.584 Z M24.984,31.616 L24.984,29.6 L23.016,29.6 L23.016,31.616 L24.984,31.616 Z M36.984,31.616 L36.984,29.6 L26.016,29.6 L26.016,31.616 L36.984,31.616 Z" id=""></path>
            </g>
        </g>
    </g>
</svg>